<svg xmlns="http://www.w3.org/2000/svg" viewBox="0 0 32 32" fill="none">
  <rect width="32" height="32" rx="6" fill="#18181B"/>
  <path d="M10 8C10 8 7 8 7 10.5L7 13.5C7 14.5 5.5 15.5 5 16C5.5 16.5 7 17.5 7 18.5L7 21.5C7 24 10 24 10 24"
    stroke="#A78BFA" stroke-width="1.5" stroke-linecap="round" stroke-linejoin="round" fill="none"/>
  <path d="M22 8C22 8 25 8 25 10.5L25 13.5C25 14.5 26.5 15.5 27 16C26.5 16.5 25 17.5 25 18.5L25 21.5C25 24 22 24 22 24"
    stroke="#A78BFA" stroke-width="1.5" stroke-linecap="round" stroke-linejoin="round" fill="none"/>
  <circle cx="13.5" cy="13" r="1.25" fill="#60A5FA"/>
  <circle cx="18" cy="13" r="1.25" fill="#34D399"/>
  <circle cx="13.5" cy="16" r="1.25" fill="#60A5FA"/>
  <circle cx="18" cy="16" r="1.25" fill="#FBBF24"/>
  <circle cx="13.5" cy="19" r="1.25" fill="#60A5FA"/>
  <circle cx="18" cy="19" r="1.25" fill="#F87171"/>
</svg>
